<svg width="95" height="21" viewBox="0 0 95 21" fill="none" xmlns="http://www.w3.org/2000/svg">
<path d="M34.2842 5.9082L30.4609 17H28.1494L32.9658 4.20312H34.4424L34.2842 5.9082ZM37.4834 17L33.6514 5.9082L33.4844 4.20312H34.9697L39.8037 17H37.4834ZM37.2988 12.2539V14.0029H30.3379V12.2539H37.2988ZM46.8262 15.0312V3.5H48.9531V17H47.0283L46.8262 15.0312ZM40.6387 12.3506V12.166C40.6387 11.4453 40.7236 10.7891 40.8936 10.1973C41.0635 9.59961 41.3096 9.08691 41.6318 8.65918C41.9541 8.22559 42.3467 7.89453 42.8096 7.66602C43.2725 7.43164 43.7939 7.31445 44.374 7.31445C44.9482 7.31445 45.4521 7.42578 45.8857 7.64844C46.3193 7.87109 46.6885 8.19043 46.9932 8.60645C47.2979 9.0166 47.541 9.50879 47.7227 10.083C47.9043 10.6514 48.0332 11.2842 48.1094 11.9814V12.5703C48.0332 13.25 47.9043 13.8711 47.7227 14.4336C47.541 14.9961 47.2979 15.4824 46.9932 15.8926C46.6885 16.3027 46.3164 16.6191 45.877 16.8418C45.4434 17.0645 44.9365 17.1758 44.3564 17.1758C43.7822 17.1758 43.2637 17.0557 42.8008 16.8154C42.3438 16.5752 41.9541 16.2383 41.6318 15.8047C41.3096 15.3711 41.0635 14.8613 40.8936 14.2754C40.7236 13.6836 40.6387 13.042 40.6387 12.3506ZM42.7568 12.166V12.3506C42.7568 12.7842 42.7949 13.1885 42.8711 13.5635C42.9531 13.9385 43.0791 14.2695 43.249 14.5566C43.4189 14.8379 43.6387 15.0605 43.9082 15.2246C44.1836 15.3828 44.5117 15.4619 44.8926 15.4619C45.373 15.4619 45.7686 15.3564 46.0791 15.1455C46.3896 14.9346 46.6328 14.6504 46.8086 14.293C46.9902 13.9297 47.1133 13.5254 47.1777 13.0801V11.4893C47.1426 11.1436 47.0693 10.8213 46.958 10.5225C46.8525 10.2236 46.709 9.96289 46.5273 9.74023C46.3457 9.51172 46.1201 9.33594 45.8506 9.21289C45.5869 9.08398 45.2734 9.01953 44.9102 9.01953C44.5234 9.01953 44.1953 9.10156 43.9258 9.26562C43.6562 9.42969 43.4336 9.65527 43.2578 9.94238C43.0879 10.2295 42.9619 10.5635 42.8799 10.9443C42.7979 11.3252 42.7568 11.7324 42.7568 12.166ZM56.9688 15.0312V3.5H59.0957V17H57.1709L56.9688 15.0312ZM50.7812 12.3506V12.166C50.7812 11.4453 50.8662 10.7891 51.0361 10.1973C51.2061 9.59961 51.4521 9.08691 51.7744 8.65918C52.0967 8.22559 52.4893 7.89453 52.9521 7.66602C53.415 7.43164 53.9365 7.31445 54.5166 7.31445C55.0908 7.31445 55.5947 7.42578 56.0283 7.64844C56.4619 7.87109 56.8311 8.19043 57.1357 8.60645C57.4404 9.0166 57.6836 9.50879 57.8652 10.083C58.0469 10.6514 58.1758 11.2842 58.252 11.9814V12.5703C58.1758 13.25 58.0469 13.8711 57.8652 14.4336C57.6836 14.9961 57.4404 15.4824 57.1357 15.8926C56.8311 16.3027 56.459 16.6191 56.0195 16.8418C55.5859 17.0645 55.0791 17.1758 54.499 17.1758C53.9248 17.1758 53.4062 17.0557 52.9434 16.8154C52.4863 16.5752 52.0967 16.2383 51.7744 15.8047C51.4521 15.3711 51.2061 14.8613 51.0361 14.2754C50.8662 13.6836 50.7812 13.042 50.7812 12.3506ZM52.8994 12.166V12.3506C52.8994 12.7842 52.9375 13.1885 53.0137 13.5635C53.0957 13.9385 53.2217 14.2695 53.3916 14.5566C53.5615 14.8379 53.7812 15.0605 54.0508 15.2246C54.3262 15.3828 54.6543 15.4619 55.0352 15.4619C55.5156 15.4619 55.9111 15.3564 56.2217 15.1455C56.5322 14.9346 56.7754 14.6504 56.9512 14.293C57.1328 13.9297 57.2559 13.5254 57.3203 13.0801V11.4893C57.2852 11.1436 57.2119 10.8213 57.1006 10.5225C56.9951 10.2236 56.8516 9.96289 56.6699 9.74023C56.4883 9.51172 56.2627 9.33594 55.9932 9.21289C55.7295 9.08398 55.416 9.01953 55.0527 9.01953C54.666 9.01953 54.3379 9.10156 54.0684 9.26562C53.7988 9.42969 53.5762 9.65527 53.4004 9.94238C53.2305 10.2295 53.1045 10.5635 53.0225 10.9443C52.9404 11.3252 52.8994 11.7324 52.8994 12.166ZM74.0195 15.251V17H67.5947V15.251H74.0195ZM68.21 4.20312V17H66.0039V4.20312H68.21ZM77.7812 7.49023V17H75.6543V7.49023H77.7812ZM75.5137 4.99414C75.5137 4.67187 75.6191 4.40527 75.8301 4.19434C76.0469 3.97754 76.3457 3.86914 76.7266 3.86914C77.1016 3.86914 77.3975 3.97754 77.6143 4.19434C77.8311 4.40527 77.9395 4.67187 77.9395 4.99414C77.9395 5.31055 77.8311 5.57422 77.6143 5.78516C77.3975 5.99609 77.1016 6.10156 76.7266 6.10156C76.3457 6.10156 76.0469 5.99609 75.8301 5.78516C75.6191 5.57422 75.5137 5.31055 75.5137 4.99414ZM85.4365 14.4248C85.4365 14.2139 85.3838 14.0234 85.2783 13.8535C85.1729 13.6777 84.9707 13.5195 84.6719 13.3789C84.3789 13.2383 83.9453 13.1094 83.3711 12.9922C82.8672 12.8809 82.4043 12.749 81.9824 12.5967C81.5664 12.4385 81.209 12.248 80.9102 12.0254C80.6113 11.8027 80.3799 11.5391 80.2158 11.2344C80.0518 10.9297 79.9697 10.5781 79.9697 10.1797C79.9697 9.79297 80.0547 9.42676 80.2246 9.08105C80.3945 8.73535 80.6377 8.43066 80.9541 8.16699C81.2705 7.90332 81.6543 7.69531 82.1055 7.54297C82.5625 7.39063 83.0723 7.31445 83.6348 7.31445C84.4316 7.31445 85.1143 7.44922 85.6826 7.71875C86.2568 7.98242 86.6963 8.34277 87.001 8.7998C87.3057 9.25098 87.458 9.76074 87.458 10.3291H85.3398C85.3398 10.0771 85.2754 9.84277 85.1465 9.62598C85.0234 9.40332 84.8359 9.22461 84.584 9.08984C84.332 8.94922 84.0156 8.87891 83.6348 8.87891C83.2715 8.87891 82.9697 8.9375 82.7295 9.05469C82.4951 9.16602 82.3193 9.3125 82.2021 9.49414C82.0908 9.67578 82.0352 9.875 82.0352 10.0918C82.0352 10.25 82.0645 10.3936 82.123 10.5225C82.1875 10.6455 82.293 10.7598 82.4395 10.8652C82.5859 10.9648 82.7852 11.0586 83.0371 11.1465C83.2949 11.2344 83.6172 11.3193 84.0039 11.4014C84.7305 11.5537 85.3545 11.75 85.876 11.9902C86.4033 12.2246 86.8076 12.5293 87.0889 12.9043C87.3701 13.2734 87.5107 13.7422 87.5107 14.3105C87.5107 14.7324 87.4199 15.1191 87.2383 15.4707C87.0625 15.8164 86.8047 16.1182 86.4648 16.376C86.125 16.6279 85.7178 16.8242 85.2432 16.9648C84.7744 17.1055 84.2471 17.1758 83.6611 17.1758C82.7998 17.1758 82.0703 17.0234 81.4727 16.7188C80.875 16.4082 80.4209 16.0127 80.1104 15.5322C79.8057 15.0459 79.6533 14.542 79.6533 14.0205H81.7012C81.7246 14.4131 81.833 14.7266 82.0264 14.9609C82.2256 15.1895 82.4717 15.3564 82.7646 15.4619C83.0635 15.5615 83.3711 15.6113 83.6875 15.6113C84.0684 15.6113 84.3877 15.5615 84.6455 15.4619C84.9033 15.3564 85.0996 15.2158 85.2344 15.04C85.3691 14.8584 85.4365 14.6533 85.4365 14.4248ZM93.7246 7.49023V9.03711H88.3633V7.49023H93.7246ZM89.9102 5.16113H92.0283V14.3721C92.0283 14.665 92.0693 14.8906 92.1514 15.0488C92.2393 15.2012 92.3594 15.3037 92.5117 15.3564C92.6641 15.4092 92.8428 15.4355 93.0479 15.4355C93.1943 15.4355 93.335 15.4268 93.4697 15.4092C93.6045 15.3916 93.7129 15.374 93.7949 15.3564L93.8037 16.9736C93.6279 17.0264 93.4229 17.0732 93.1885 17.1143C92.96 17.1553 92.6963 17.1758 92.3975 17.1758C91.9111 17.1758 91.4805 17.0908 91.1055 16.9209C90.7305 16.7451 90.4375 16.4609 90.2266 16.0684C90.0156 15.6758 89.9102 15.1543 89.9102 14.5039V5.16113Z" fill="#C00511"/>
<path d="M9 2V18" stroke="#C00511" stroke-width="2" stroke-linecap="round" stroke-linejoin="round"/>
<path d="M1 10H17" stroke="#C00511" stroke-width="2" stroke-linecap="round" stroke-linejoin="round"/>
</svg>
