<svg width="15" height="29" viewBox="0 0 15 29" fill="none" xmlns="http://www.w3.org/2000/svg">
<path d="M1.83468 10.1092L11.433 0.602298C11.8248 0.216529 12.3548 0 12.9072 0C13.4596 0 13.9896 0.216529 14.3814 0.602298C14.5774 0.794845 14.733 1.02392 14.8392 1.27632C14.9453 1.52872 15 1.79944 15 2.07287C15 2.3463 14.9453 2.61702 14.8392 2.86942C14.733 3.12181 14.5774 3.35089 14.3814 3.54344L4.76225 13.0297C4.56626 13.2222 4.41069 13.4513 4.30453 13.7037C4.19836 13.9561 4.1437 14.2268 4.1437 14.5002C4.1437 14.7737 4.19836 15.0444 4.30453 15.2968C4.41069 15.5492 4.56626 15.7783 4.76225 15.9708L14.3814 25.457C14.7752 25.8443 14.9975 26.3707 14.9995 26.9203C15.0015 27.4699 14.7829 27.9978 14.3919 28.3878C14.0009 28.7778 13.4695 28.998 12.9146 29C12.3597 29.0019 11.8267 28.7854 11.433 28.3982L1.83468 18.8912C0.659876 17.7262 0 16.1469 0 14.5002C0 12.8536 0.659876 11.2743 1.83468 10.1092Z" fill="white" fill-opacity="0.52"/>
</svg>
