<svg width="15" height="29" viewBox="0 0 15 29" fill="none" xmlns="http://www.w3.org/2000/svg">
<path d="M13.1653 10.1092L3.56705 0.602298C3.17525 0.216529 2.64524 0 2.0928 0C1.54035 0 1.01035 0.216529 0.618552 0.602298C0.422554 0.794845 0.266987 1.02392 0.160823 1.27632C0.0546589 1.52872 0 1.79944 0 2.07287C0 2.3463 0.0546589 2.61702 0.160823 2.86942C0.266987 3.12181 0.422554 3.35089 0.618552 3.54344L10.2377 13.0297C10.4337 13.2222 10.5893 13.4513 10.6955 13.7037C10.8016 13.9561 10.8563 14.2268 10.8563 14.5002C10.8563 14.7737 10.8016 15.0444 10.6955 15.2968C10.5893 15.5492 10.4337 15.7783 10.2377 15.9708L0.618552 25.457C0.224785 25.8443 0.00246735 26.3707 0.000506541 26.9203C-0.00145427 27.4699 0.217104 27.9978 0.608098 28.3878C0.999093 28.7778 1.5305 28.998 2.08541 29C2.64032 29.0019 3.17328 28.7854 3.56705 28.3982L13.1653 18.8912C14.3401 17.7262 15 16.1469 15 14.5002C15 12.8536 14.3401 11.2743 13.1653 10.1092Z" fill="white" fill-opacity="0.52"/>
</svg>
