<svg width="32" height="32" viewBox="0 0 32 32" fill="none" xmlns="http://www.w3.org/2000/svg">
<path fill-rule="evenodd" clip-rule="evenodd" d="M16 0C24.8306 0 32 7.16938 32 16C32 24.8306 24.8306 32 16 32C7.16938 32 0 24.8306 0 16C0 7.16938 7.16938 0 16 0ZM25.5822 11.1861C25.3522 10.3256 24.6746 9.648 23.8141 9.418C22.2542 9 16 9 16 9C16 9 9.74581 9 8.18594 9.418C7.32563 9.648 6.64781 10.3256 6.41781 11.1861C6 12.7458 6 16.0001 6 16.0001C6 16.0001 6 19.2543 6.41781 20.8139C6.64781 21.6744 7.32563 22.3523 8.18594 22.5822C9.74581 23 16 23 16 23C16 23 22.2542 23 23.8141 22.5822C24.6746 22.3523 25.3522 21.6744 25.5822 20.8139C26 19.2543 26 16.0001 26 16.0001C26 16.0001 26 12.7458 25.5822 11.1861ZM13.9999 19.0002V13.0001L19.196 16.0001L13.9999 19.0002Z" fill="#8B8B8B"/>
</svg>
