<svg width="16" height="18" viewBox="0 0 16 18" fill="none" xmlns="http://www.w3.org/2000/svg">
<path d="M14.648 10.7018L14.3 10.4275C14.2065 10.3541 14.1309 10.261 14.079 10.1551C14.0271 10.0493 14.0001 9.93338 14 9.81594V6.64863C13.9995 5.28749 13.5172 3.96867 12.6353 2.91713C11.7534 1.86558 10.5265 1.14645 9.164 0.882386C9.09756 0.629863 8.94736 0.406144 8.73701 0.246413C8.52667 0.0866817 8.26811 0 8.002 0C7.73589 0 7.47733 0.0866817 7.26699 0.246413C7.05664 0.406144 6.90644 0.629863 6.84 0.882386C5.47672 1.14565 4.24894 1.86444 3.36624 2.91606C2.48354 3.96768 2.00065 5.28694 2 6.64863V9.81594C1.99993 9.93338 1.97293 10.0493 1.921 10.1551C1.86908 10.261 1.79355 10.3541 1.7 10.4275L1.352 10.7018C0.931712 11.0311 0.592092 11.4485 0.35812 11.9234C0.124147 12.3983 0.00177343 12.9185 0 13.4458V14.0965C0 14.5124 0.168571 14.9112 0.468629 15.2052C0.768687 15.4993 1.17565 15.6645 1.6 15.6645H4.904C5.08432 16.3339 5.48561 16.926 6.04528 17.3484C6.60495 17.7709 7.29155 18 7.998 18C8.70445 18 9.39105 17.7709 9.95072 17.3484C10.5104 16.926 10.9117 16.3339 11.092 15.6645H14.4C14.8243 15.6645 15.2313 15.4993 15.5314 15.2052C15.8314 14.9112 16 14.5124 16 14.0965V13.4536C15.9994 12.925 15.8776 12.4033 15.6436 11.9269C15.4096 11.4506 15.0693 11.032 14.648 10.7018ZM8 16.4485C7.72078 16.4468 7.44686 16.3736 7.20546 16.2361C6.96407 16.0985 6.76361 15.9015 6.624 15.6645H9.38C9.24005 15.9021 9.03896 16.0995 8.7968 16.237C8.55465 16.3746 8.2799 16.4475 8 16.4485ZM14.4 14.0965H1.6V13.4536C1.60043 13.1599 1.66823 12.87 1.7984 12.6054C1.92856 12.3407 2.11776 12.1082 2.352 11.9249L2.7 11.6505C2.98065 11.4303 3.20723 11.1511 3.36301 10.8336C3.51878 10.516 3.59978 10.1683 3.6 9.81594V6.64863C3.6 5.50503 4.06357 4.40827 4.88873 3.59962C5.71389 2.79098 6.83305 2.33669 8 2.33669C9.16695 2.33669 10.2861 2.79098 11.1113 3.59962C11.9364 4.40827 12.4 5.50503 12.4 6.64863V9.81594C12.3996 10.1689 12.4803 10.5175 12.6361 10.8357C12.7919 11.154 13.0188 11.4338 13.3 11.6544L13.648 11.9288C13.8817 12.1117 14.0706 12.3436 14.2007 12.6075C14.3309 12.8714 14.399 13.1606 14.4 13.4536V14.0965Z" fill="white"/>
</svg>
